<?xml version="1.0" encoding="UTF-8" standalone="no"?>
<!DOCTYPE svg PUBLIC "-//W3C//DTD SVG 1.1//EN"
 "http://www.w3.org/Graphics/SVG/1.1/DTD/svg11.dtd">
<!-- Generated by graphviz version 14.1.2 (20260126.1125)
 -->
<!-- Title: snakemake_dag Pages: 1 -->
<svg width="411pt" height="333pt"
 viewBox="0.00 0.00 411.00 333.00" xmlns="http://www.w3.org/2000/svg" xmlns:xlink="http://www.w3.org/1999/xlink">
<g id="graph0" class="graph" transform="scale(1 1) rotate(0) translate(4 328.5)">
<title>snakemake_dag</title>
<polygon fill="white" stroke="none" points="-4,4 -4,-328.5 406.5,-328.5 406.5,4 -4,4"/>
<!-- 0 -->
<g id="node1" class="node">
<title>0</title>
<path fill="none" stroke="#59d856" stroke-width="2" stroke-dasharray="5,2" d="M200.5,-36C200.5,-36 162,-36 162,-36 156,-36 150,-30 150,-24 150,-24 150,-12 150,-12 150,-6 156,0 162,0 162,0 200.5,0 200.5,0 206.5,0 212.5,-6 212.5,-12 212.5,-12 212.5,-24 212.5,-24 212.5,-30 206.5,-36 200.5,-36"/>
<text xml:space="preserve" text-anchor="middle" x="181.25" y="-15.62" font-family="sans" font-size="10.00">plot_quals</text>
</g>
<!-- 1 -->
<g id="node2" class="node">
<title>1</title>
<path fill="none" stroke="#d8ac56" stroke-width="2" stroke-dasharray="5,2" d="M205,-108C205,-108 157.5,-108 157.5,-108 151.5,-108 145.5,-102 145.5,-96 145.5,-96 145.5,-84 145.5,-84 145.5,-78 151.5,-72 157.5,-72 157.5,-72 205,-72 205,-72 211,-72 217,-78 217,-84 217,-84 217,-96 217,-96 217,-102 211,-108 205,-108"/>
<text xml:space="preserve" text-anchor="middle" x="181.25" y="-87.62" font-family="sans" font-size="10.00">bcftools_call</text>
</g>
<!-- 1&#45;&gt;0 -->
<g id="edge1" class="edge">
<title>1&#45;&gt;0</title>
<path fill="none" stroke="grey" stroke-width="2" d="M181.25,-71.34C181.25,-64.75 181.25,-57.08 181.25,-49.67"/>
<polygon fill="grey" stroke="grey" stroke-width="2" points="184.75,-49.93 181.25,-39.93 177.75,-49.93 184.75,-49.93"/>
</g>
<!-- 2 -->
<g id="node3" class="node">
<title>2</title>
<path fill="none" stroke="#56a9d8" stroke-width="2" stroke-dasharray="5,2" d="M68.5,-252C68.5,-252 12,-252 12,-252 6,-252 0,-246 0,-240 0,-240 0,-228 0,-228 0,-222 6,-216 12,-216 12,-216 68.5,-216 68.5,-216 74.5,-216 80.5,-222 80.5,-228 80.5,-228 80.5,-240 80.5,-240 80.5,-246 74.5,-252 68.5,-252"/>
<text xml:space="preserve" text-anchor="middle" x="40.25" y="-231.62" font-family="sans" font-size="10.00">samtools_sort</text>
</g>
<!-- 2&#45;&gt;1 -->
<g id="edge2" class="edge">
<title>2&#45;&gt;1</title>
<path fill="none" stroke="grey" stroke-width="2" d="M29.59,-215.24C19.54,-195.95 8.09,-165.07 23.25,-144 47.78,-109.9 95.3,-97.43 131.84,-93.03"/>
<polygon fill="grey" stroke="grey" stroke-width="2" points="132.13,-96.52 141.74,-92.04 131.44,-89.55 132.13,-96.52"/>
</g>
<!-- 8 -->
<g id="node9" class="node">
<title>8</title>
<path fill="none" stroke="#56d8a9" stroke-width="2" stroke-dasharray="5,2" d="M106.5,-180C106.5,-180 44,-180 44,-180 38,-180 32,-174 32,-168 32,-168 32,-156 32,-156 32,-150 38,-144 44,-144 44,-144 106.5,-144 106.5,-144 112.5,-144 118.5,-150 118.5,-156 118.5,-156 118.5,-168 118.5,-168 118.5,-174 112.5,-180 106.5,-180"/>
<text xml:space="preserve" text-anchor="middle" x="75.25" y="-159.62" font-family="sans" font-size="10.00">samtools_index</text>
</g>
<!-- 2&#45;&gt;8 -->
<g id="edge11" class="edge">
<title>2&#45;&gt;8</title>
<path fill="none" stroke="grey" stroke-width="2" d="M49.08,-215.34C52.58,-208.34 56.69,-200.12 60.61,-192.28"/>
<polygon fill="grey" stroke="grey" stroke-width="2" points="63.6,-194.12 64.95,-183.61 57.34,-190.99 63.6,-194.12"/>
</g>
<!-- 3 -->
<g id="node4" class="node">
<title>3</title>
<path fill="none" stroke="#afd856" stroke-width="2" stroke-dasharray="5,2" d="M58.75,-324.5C58.75,-324.5 21.75,-324.5 21.75,-324.5 15.75,-324.5 9.75,-318.5 9.75,-312.5 9.75,-312.5 9.75,-300 9.75,-300 9.75,-294 15.75,-288 21.75,-288 21.75,-288 58.75,-288 58.75,-288 64.75,-288 70.75,-294 70.75,-300 70.75,-300 70.75,-312.5 70.75,-312.5 70.75,-318.5 64.75,-324.5 58.75,-324.5"/>
<text xml:space="preserve" text-anchor="middle" x="40.25" y="-311" font-family="sans" font-size="10.00">bwa_map</text>
<text xml:space="preserve" text-anchor="middle" x="40.25" y="-296.75" font-family="sans" font-size="10.00">sample: A</text>
</g>
<!-- 3&#45;&gt;2 -->
<g id="edge8" class="edge">
<title>3&#45;&gt;2</title>
<path fill="none" stroke="grey" stroke-width="2" d="M40.25,-287.16C40.25,-280.64 40.25,-273.08 40.25,-265.77"/>
<polygon fill="grey" stroke="grey" stroke-width="2" points="43.75,-265.81 40.25,-255.81 36.75,-265.81 43.75,-265.81"/>
</g>
<!-- 4 -->
<g id="node5" class="node">
<title>4</title>
<path fill="none" stroke="#56a9d8" stroke-width="2" stroke-dasharray="5,2" d="M227.5,-252C227.5,-252 171,-252 171,-252 165,-252 159,-246 159,-240 159,-240 159,-228 159,-228 159,-222 165,-216 171,-216 171,-216 227.5,-216 227.5,-216 233.5,-216 239.5,-222 239.5,-228 239.5,-228 239.5,-240 239.5,-240 239.5,-246 233.5,-252 227.5,-252"/>
<text xml:space="preserve" text-anchor="middle" x="199.25" y="-231.62" font-family="sans" font-size="10.00">samtools_sort</text>
</g>
<!-- 4&#45;&gt;1 -->
<g id="edge3" class="edge">
<title>4&#45;&gt;1</title>
<path fill="none" stroke="grey" stroke-width="2" d="M184.14,-215.16C176.9,-205.44 169,-192.8 165.25,-180 159.62,-160.79 163.57,-138.64 168.95,-121.24"/>
<polygon fill="grey" stroke="grey" stroke-width="2" points="172.23,-122.45 172.21,-111.85 165.62,-120.15 172.23,-122.45"/>
</g>
<!-- 9 -->
<g id="node10" class="node">
<title>9</title>
<path fill="none" stroke="#56d8a9" stroke-width="2" stroke-dasharray="5,2" d="M248.5,-180C248.5,-180 186,-180 186,-180 180,-180 174,-174 174,-168 174,-168 174,-156 174,-156 174,-150 180,-144 186,-144 186,-144 248.5,-144 248.5,-144 254.5,-144 260.5,-150 260.5,-156 260.5,-156 260.5,-168 260.5,-168 260.5,-174 254.5,-180 248.5,-180"/>
<text xml:space="preserve" text-anchor="middle" x="217.25" y="-159.62" font-family="sans" font-size="10.00">samtools_index</text>
</g>
<!-- 4&#45;&gt;9 -->
<g id="edge12" class="edge">
<title>4&#45;&gt;9</title>
<path fill="none" stroke="grey" stroke-width="2" d="M203.79,-215.34C205.51,-208.67 207.51,-200.89 209.44,-193.39"/>
<polygon fill="grey" stroke="grey" stroke-width="2" points="212.79,-194.39 211.89,-183.83 206.01,-192.65 212.79,-194.39"/>
</g>
<!-- 5 -->
<g id="node6" class="node">
<title>5</title>
<path fill="none" stroke="#afd856" stroke-width="2" stroke-dasharray="5,2" d="M217.75,-324.5C217.75,-324.5 180.75,-324.5 180.75,-324.5 174.75,-324.5 168.75,-318.5 168.75,-312.5 168.75,-312.5 168.75,-300 168.75,-300 168.75,-294 174.75,-288 180.75,-288 180.75,-288 217.75,-288 217.75,-288 223.75,-288 229.75,-294 229.75,-300 229.75,-300 229.75,-312.5 229.75,-312.5 229.75,-318.5 223.75,-324.5 217.75,-324.5"/>
<text xml:space="preserve" text-anchor="middle" x="199.25" y="-311" font-family="sans" font-size="10.00">bwa_map</text>
<text xml:space="preserve" text-anchor="middle" x="199.25" y="-296.75" font-family="sans" font-size="10.00">sample: B</text>
</g>
<!-- 5&#45;&gt;4 -->
<g id="edge9" class="edge">
<title>5&#45;&gt;4</title>
<path fill="none" stroke="grey" stroke-width="2" d="M199.25,-287.16C199.25,-280.64 199.25,-273.08 199.25,-265.77"/>
<polygon fill="grey" stroke="grey" stroke-width="2" points="202.75,-265.81 199.25,-255.81 195.75,-265.81 202.75,-265.81"/>
</g>
<!-- 6 -->
<g id="node7" class="node">
<title>6</title>
<path fill="none" stroke="#56a9d8" stroke-width="2" stroke-dasharray="5,2" d="M333.5,-252C333.5,-252 277,-252 277,-252 271,-252 265,-246 265,-240 265,-240 265,-228 265,-228 265,-222 271,-216 277,-216 277,-216 333.5,-216 333.5,-216 339.5,-216 345.5,-222 345.5,-228 345.5,-228 345.5,-240 345.5,-240 345.5,-246 339.5,-252 333.5,-252"/>
<text xml:space="preserve" text-anchor="middle" x="305.25" y="-231.62" font-family="sans" font-size="10.00">samtools_sort</text>
</g>
<!-- 6&#45;&gt;1 -->
<g id="edge4" class="edge">
<title>6&#45;&gt;1</title>
<path fill="none" stroke="grey" stroke-width="2" d="M301.61,-215.19C296.9,-195.84 287.1,-164.92 269.25,-144 258.29,-131.16 243.39,-120.56 228.98,-112.31"/>
<polygon fill="grey" stroke="grey" stroke-width="2" points="230.74,-109.28 220.27,-107.63 227.42,-115.45 230.74,-109.28"/>
</g>
<!-- 10 -->
<g id="node11" class="node">
<title>10</title>
<path fill="none" stroke="#56d8a9" stroke-width="2" stroke-dasharray="5,2" d="M390.5,-180C390.5,-180 328,-180 328,-180 322,-180 316,-174 316,-168 316,-168 316,-156 316,-156 316,-150 322,-144 328,-144 328,-144 390.5,-144 390.5,-144 396.5,-144 402.5,-150 402.5,-156 402.5,-156 402.5,-168 402.5,-168 402.5,-174 396.5,-180 390.5,-180"/>
<text xml:space="preserve" text-anchor="middle" x="359.25" y="-159.62" font-family="sans" font-size="10.00">samtools_index</text>
</g>
<!-- 6&#45;&gt;10 -->
<g id="edge13" class="edge">
<title>6&#45;&gt;10</title>
<path fill="none" stroke="grey" stroke-width="2" d="M318.88,-215.34C324.52,-208.01 331.22,-199.34 337.51,-191.18"/>
<polygon fill="grey" stroke="grey" stroke-width="2" points="340.25,-193.35 343.59,-183.3 334.71,-189.08 340.25,-193.35"/>
</g>
<!-- 7 -->
<g id="node8" class="node">
<title>7</title>
<path fill="none" stroke="#afd856" stroke-width="2" stroke-dasharray="5,2" d="M323.38,-324.5C323.38,-324.5 287.12,-324.5 287.12,-324.5 281.12,-324.5 275.12,-318.5 275.12,-312.5 275.12,-312.5 275.12,-300 275.12,-300 275.12,-294 281.12,-288 287.12,-288 287.12,-288 323.38,-288 323.38,-288 329.38,-288 335.38,-294 335.38,-300 335.38,-300 335.38,-312.5 335.38,-312.5 335.38,-318.5 329.38,-324.5 323.38,-324.5"/>
<text xml:space="preserve" text-anchor="middle" x="305.25" y="-311" font-family="sans" font-size="10.00">bwa_map</text>
<text xml:space="preserve" text-anchor="middle" x="305.25" y="-296.75" font-family="sans" font-size="10.00">sample: C</text>
</g>
<!-- 7&#45;&gt;6 -->
<g id="edge10" class="edge">
<title>7&#45;&gt;6</title>
<path fill="none" stroke="grey" stroke-width="2" d="M305.25,-287.16C305.25,-280.64 305.25,-273.08 305.25,-265.77"/>
<polygon fill="grey" stroke="grey" stroke-width="2" points="308.75,-265.81 305.25,-255.81 301.75,-265.81 308.75,-265.81"/>
</g>
<!-- 8&#45;&gt;1 -->
<g id="edge5" class="edge">
<title>8&#45;&gt;1</title>
<path fill="none" stroke="grey" stroke-width="2" d="M102.27,-143.15C114.86,-134.84 130.04,-124.82 143.71,-115.79"/>
<polygon fill="grey" stroke="grey" stroke-width="2" points="145.33,-118.91 151.75,-110.48 141.48,-113.07 145.33,-118.91"/>
</g>
<!-- 9&#45;&gt;1 -->
<g id="edge6" class="edge">
<title>9&#45;&gt;1</title>
<path fill="none" stroke="grey" stroke-width="2" d="M208.17,-143.34C204.57,-136.34 200.34,-128.12 196.31,-120.28"/>
<polygon fill="grey" stroke="grey" stroke-width="2" points="199.53,-118.89 191.84,-111.59 193.3,-122.09 199.53,-118.89"/>
</g>
<!-- 10&#45;&gt;1 -->
<g id="edge7" class="edge">
<title>10&#45;&gt;1</title>
<path fill="none" stroke="grey" stroke-width="2" d="M315.25,-143.7C289.27,-133.48 256.35,-120.53 229.64,-110.03"/>
<polygon fill="grey" stroke="grey" stroke-width="2" points="231.25,-106.9 220.67,-106.5 228.69,-113.42 231.25,-106.9"/>
</g>
</g>
</svg>
