<?xml version="1.0" encoding="UTF-8" standalone="no"?>
<!DOCTYPE svg PUBLIC "-//W3C//DTD SVG 1.1//EN"
 "http://www.w3.org/Graphics/SVG/1.1/DTD/svg11.dtd">
<!-- Generated by graphviz version 14.1.2 (20260126.1125)
 -->
<!-- Title: snakemake_dag Pages: 1 -->
<svg width="411pt" height="261pt"
 viewBox="0.00 0.00 411.00 261.00" xmlns="http://www.w3.org/2000/svg" xmlns:xlink="http://www.w3.org/1999/xlink">
<g id="graph0" class="graph" transform="scale(1 1) rotate(0) translate(4 256.5)">
<title>snakemake_dag</title>
<polygon fill="white" stroke="none" points="-4,4 -4,-256.5 406.5,-256.5 406.5,4 -4,4"/>
<!-- 0 -->
<g id="node1" class="node">
<title>0</title>
<path fill="none" stroke="#d85656" stroke-width="2" d="M205,-36C205,-36 157.5,-36 157.5,-36 151.5,-36 145.5,-30 145.5,-24 145.5,-24 145.5,-12 145.5,-12 145.5,-6 151.5,0 157.5,0 157.5,0 205,0 205,0 211,0 217,-6 217,-12 217,-12 217,-24 217,-24 217,-30 211,-36 205,-36"/>
<text xml:space="preserve" text-anchor="middle" x="181.25" y="-15.62" font-family="sans" font-size="10.00">bcftools_call</text>
</g>
<!-- 1 -->
<g id="node2" class="node">
<title>1</title>
<path fill="none" stroke="#56d8d8" stroke-width="2" d="M68.5,-180C68.5,-180 12,-180 12,-180 6,-180 0,-174 0,-168 0,-168 0,-156 0,-156 0,-150 6,-144 12,-144 12,-144 68.5,-144 68.5,-144 74.5,-144 80.5,-150 80.5,-156 80.5,-156 80.5,-168 80.5,-168 80.5,-174 74.5,-180 68.5,-180"/>
<text xml:space="preserve" text-anchor="middle" x="40.25" y="-159.62" font-family="sans" font-size="10.00">samtools_sort</text>
</g>
<!-- 1&#45;&gt;0 -->
<g id="edge1" class="edge">
<title>1&#45;&gt;0</title>
<path fill="none" stroke="grey" stroke-width="2" d="M29.59,-143.24C19.54,-123.95 8.09,-93.07 23.25,-72 47.78,-37.9 95.3,-25.43 131.84,-21.03"/>
<polygon fill="grey" stroke="grey" stroke-width="2" points="132.13,-24.52 141.74,-20.04 131.44,-17.55 132.13,-24.52"/>
</g>
<!-- 7 -->
<g id="node8" class="node">
<title>7</title>
<path fill="none" stroke="#59d856" stroke-width="2" d="M106.5,-108C106.5,-108 44,-108 44,-108 38,-108 32,-102 32,-96 32,-96 32,-84 32,-84 32,-78 38,-72 44,-72 44,-72 106.5,-72 106.5,-72 112.5,-72 118.5,-78 118.5,-84 118.5,-84 118.5,-96 118.5,-96 118.5,-102 112.5,-108 106.5,-108"/>
<text xml:space="preserve" text-anchor="middle" x="75.25" y="-87.62" font-family="sans" font-size="10.00">samtools_index</text>
</g>
<!-- 1&#45;&gt;7 -->
<g id="edge10" class="edge">
<title>1&#45;&gt;7</title>
<path fill="none" stroke="grey" stroke-width="2" d="M49.08,-143.34C52.58,-136.34 56.69,-128.12 60.61,-120.28"/>
<polygon fill="grey" stroke="grey" stroke-width="2" points="63.6,-122.12 64.95,-111.61 57.34,-118.99 63.6,-122.12"/>
</g>
<!-- 2 -->
<g id="node3" class="node">
<title>2</title>
<path fill="none" stroke="#d6d856" stroke-width="2" d="M58.75,-252.5C58.75,-252.5 21.75,-252.5 21.75,-252.5 15.75,-252.5 9.75,-246.5 9.75,-240.5 9.75,-240.5 9.75,-228 9.75,-228 9.75,-222 15.75,-216 21.75,-216 21.75,-216 58.75,-216 58.75,-216 64.75,-216 70.75,-222 70.75,-228 70.75,-228 70.75,-240.5 70.75,-240.5 70.75,-246.5 64.75,-252.5 58.75,-252.5"/>
<text xml:space="preserve" text-anchor="middle" x="40.25" y="-239" font-family="sans" font-size="10.00">bwa_map</text>
<text xml:space="preserve" text-anchor="middle" x="40.25" y="-224.75" font-family="sans" font-size="10.00">sample: A</text>
</g>
<!-- 2&#45;&gt;1 -->
<g id="edge7" class="edge">
<title>2&#45;&gt;1</title>
<path fill="none" stroke="grey" stroke-width="2" d="M40.25,-215.16C40.25,-208.64 40.25,-201.08 40.25,-193.77"/>
<polygon fill="grey" stroke="grey" stroke-width="2" points="43.75,-193.81 40.25,-183.81 36.75,-193.81 43.75,-193.81"/>
</g>
<!-- 3 -->
<g id="node4" class="node">
<title>3</title>
<path fill="none" stroke="#56d8d8" stroke-width="2" d="M227.5,-180C227.5,-180 171,-180 171,-180 165,-180 159,-174 159,-168 159,-168 159,-156 159,-156 159,-150 165,-144 171,-144 171,-144 227.5,-144 227.5,-144 233.5,-144 239.5,-150 239.5,-156 239.5,-156 239.5,-168 239.5,-168 239.5,-174 233.5,-180 227.5,-180"/>
<text xml:space="preserve" text-anchor="middle" x="199.25" y="-159.62" font-family="sans" font-size="10.00">samtools_sort</text>
</g>
<!-- 3&#45;&gt;0 -->
<g id="edge2" class="edge">
<title>3&#45;&gt;0</title>
<path fill="none" stroke="grey" stroke-width="2" d="M184.14,-143.16C176.9,-133.44 169,-120.8 165.25,-108 159.62,-88.79 163.57,-66.64 168.95,-49.24"/>
<polygon fill="grey" stroke="grey" stroke-width="2" points="172.23,-50.45 172.21,-39.85 165.62,-48.15 172.23,-50.45"/>
</g>
<!-- 8 -->
<g id="node9" class="node">
<title>8</title>
<path fill="none" stroke="#59d856" stroke-width="2" d="M248.5,-108C248.5,-108 186,-108 186,-108 180,-108 174,-102 174,-96 174,-96 174,-84 174,-84 174,-78 180,-72 186,-72 186,-72 248.5,-72 248.5,-72 254.5,-72 260.5,-78 260.5,-84 260.5,-84 260.5,-96 260.5,-96 260.5,-102 254.5,-108 248.5,-108"/>
<text xml:space="preserve" text-anchor="middle" x="217.25" y="-87.62" font-family="sans" font-size="10.00">samtools_index</text>
</g>
<!-- 3&#45;&gt;8 -->
<g id="edge11" class="edge">
<title>3&#45;&gt;8</title>
<path fill="none" stroke="grey" stroke-width="2" d="M203.79,-143.34C205.51,-136.67 207.51,-128.89 209.44,-121.39"/>
<polygon fill="grey" stroke="grey" stroke-width="2" points="212.79,-122.39 211.89,-111.83 206.01,-120.65 212.79,-122.39"/>
</g>
<!-- 4 -->
<g id="node5" class="node">
<title>4</title>
<path fill="none" stroke="#d6d856" stroke-width="2" d="M217.75,-252.5C217.75,-252.5 180.75,-252.5 180.75,-252.5 174.75,-252.5 168.75,-246.5 168.75,-240.5 168.75,-240.5 168.75,-228 168.75,-228 168.75,-222 174.75,-216 180.75,-216 180.75,-216 217.75,-216 217.75,-216 223.75,-216 229.75,-222 229.75,-228 229.75,-228 229.75,-240.5 229.75,-240.5 229.75,-246.5 223.75,-252.5 217.75,-252.5"/>
<text xml:space="preserve" text-anchor="middle" x="199.25" y="-239" font-family="sans" font-size="10.00">bwa_map</text>
<text xml:space="preserve" text-anchor="middle" x="199.25" y="-224.75" font-family="sans" font-size="10.00">sample: B</text>
</g>
<!-- 4&#45;&gt;3 -->
<g id="edge8" class="edge">
<title>4&#45;&gt;3</title>
<path fill="none" stroke="grey" stroke-width="2" d="M199.25,-215.16C199.25,-208.64 199.25,-201.08 199.25,-193.77"/>
<polygon fill="grey" stroke="grey" stroke-width="2" points="202.75,-193.81 199.25,-183.81 195.75,-193.81 202.75,-193.81"/>
</g>
<!-- 5 -->
<g id="node6" class="node">
<title>5</title>
<path fill="none" stroke="#56d8d8" stroke-width="2" d="M333.5,-180C333.5,-180 277,-180 277,-180 271,-180 265,-174 265,-168 265,-168 265,-156 265,-156 265,-150 271,-144 277,-144 277,-144 333.5,-144 333.5,-144 339.5,-144 345.5,-150 345.5,-156 345.5,-156 345.5,-168 345.5,-168 345.5,-174 339.5,-180 333.5,-180"/>
<text xml:space="preserve" text-anchor="middle" x="305.25" y="-159.62" font-family="sans" font-size="10.00">samtools_sort</text>
</g>
<!-- 5&#45;&gt;0 -->
<g id="edge3" class="edge">
<title>5&#45;&gt;0</title>
<path fill="none" stroke="grey" stroke-width="2" d="M301.61,-143.19C296.9,-123.84 287.1,-92.92 269.25,-72 258.29,-59.16 243.39,-48.56 228.98,-40.31"/>
<polygon fill="grey" stroke="grey" stroke-width="2" points="230.74,-37.28 220.27,-35.63 227.42,-43.45 230.74,-37.28"/>
</g>
<!-- 9 -->
<g id="node10" class="node">
<title>9</title>
<path fill="none" stroke="#59d856" stroke-width="2" d="M390.5,-108C390.5,-108 328,-108 328,-108 322,-108 316,-102 316,-96 316,-96 316,-84 316,-84 316,-78 322,-72 328,-72 328,-72 390.5,-72 390.5,-72 396.5,-72 402.5,-78 402.5,-84 402.5,-84 402.5,-96 402.5,-96 402.5,-102 396.5,-108 390.5,-108"/>
<text xml:space="preserve" text-anchor="middle" x="359.25" y="-87.62" font-family="sans" font-size="10.00">samtools_index</text>
</g>
<!-- 5&#45;&gt;9 -->
<g id="edge12" class="edge">
<title>5&#45;&gt;9</title>
<path fill="none" stroke="grey" stroke-width="2" d="M318.88,-143.34C324.52,-136.01 331.22,-127.34 337.51,-119.18"/>
<polygon fill="grey" stroke="grey" stroke-width="2" points="340.25,-121.35 343.59,-111.3 334.71,-117.08 340.25,-121.35"/>
</g>
<!-- 6 -->
<g id="node7" class="node">
<title>6</title>
<path fill="none" stroke="#d6d856" stroke-width="2" d="M323.38,-252.5C323.38,-252.5 287.12,-252.5 287.12,-252.5 281.12,-252.5 275.12,-246.5 275.12,-240.5 275.12,-240.5 275.12,-228 275.12,-228 275.12,-222 281.12,-216 287.12,-216 287.12,-216 323.38,-216 323.38,-216 329.38,-216 335.38,-222 335.38,-228 335.38,-228 335.38,-240.5 335.38,-240.5 335.38,-246.5 329.38,-252.5 323.38,-252.5"/>
<text xml:space="preserve" text-anchor="middle" x="305.25" y="-239" font-family="sans" font-size="10.00">bwa_map</text>
<text xml:space="preserve" text-anchor="middle" x="305.25" y="-224.75" font-family="sans" font-size="10.00">sample: C</text>
</g>
<!-- 6&#45;&gt;5 -->
<g id="edge9" class="edge">
<title>6&#45;&gt;5</title>
<path fill="none" stroke="grey" stroke-width="2" d="M305.25,-215.16C305.25,-208.64 305.25,-201.08 305.25,-193.77"/>
<polygon fill="grey" stroke="grey" stroke-width="2" points="308.75,-193.81 305.25,-183.81 301.75,-193.81 308.75,-193.81"/>
</g>
<!-- 7&#45;&gt;0 -->
<g id="edge4" class="edge">
<title>7&#45;&gt;0</title>
<path fill="none" stroke="grey" stroke-width="2" d="M102.27,-71.15C114.86,-62.84 130.04,-52.82 143.71,-43.79"/>
<polygon fill="grey" stroke="grey" stroke-width="2" points="145.33,-46.91 151.75,-38.48 141.48,-41.07 145.33,-46.91"/>
</g>
<!-- 8&#45;&gt;0 -->
<g id="edge5" class="edge">
<title>8&#45;&gt;0</title>
<path fill="none" stroke="grey" stroke-width="2" d="M208.17,-71.34C204.57,-64.34 200.34,-56.12 196.31,-48.28"/>
<polygon fill="grey" stroke="grey" stroke-width="2" points="199.53,-46.89 191.84,-39.59 193.3,-50.09 199.53,-46.89"/>
</g>
<!-- 9&#45;&gt;0 -->
<g id="edge6" class="edge">
<title>9&#45;&gt;0</title>
<path fill="none" stroke="grey" stroke-width="2" d="M315.25,-71.7C289.27,-61.48 256.35,-48.53 229.64,-38.03"/>
<polygon fill="grey" stroke="grey" stroke-width="2" points="231.25,-34.9 220.67,-34.5 228.69,-41.42 231.25,-34.9"/>
</g>
</g>
</svg>
