<?xml version="1.0" encoding="utf-8" standalone="no"?>
<!DOCTYPE svg PUBLIC "-//W3C//DTD SVG 1.1//EN"
  "http://www.w3.org/Graphics/SVG/1.1/DTD/svg11.dtd">
<svg xmlns:xlink="http://www.w3.org/1999/xlink" width="576pt" height="360pt" viewBox="0 0 576 360" xmlns="http://www.w3.org/2000/svg" version="1.1">
 <metadata>
  <rdf:RDF xmlns:dc="http://purl.org/dc/elements/1.1/" xmlns:cc="http://creativecommons.org/ns#" xmlns:rdf="http://www.w3.org/1999/02/22-rdf-syntax-ns#">
   <cc:Work>
    <dc:type rdf:resource="http://purl.org/dc/dcmitype/StillImage"/>
    <dc:date>2026-04-21T10:59:58.180864</dc:date>
    <dc:format>image/svg+xml</dc:format>
    <dc:creator>
     <cc:Agent>
      <dc:title>Matplotlib v3.10.8, https://matplotlib.org/</dc:title>
     </cc:Agent>
    </dc:creator>
   </cc:Work>
  </rdf:RDF>
 </metadata>
 <defs>
  <style type="text/css">*{stroke-linejoin: round; stroke-linecap: butt}</style>
 </defs>
 <g id="figure_1">
  <g id="patch_1">
   <path d="M 0 360 
L 576 360 
L 576 0 
L 0 0 
z
" style="fill: #ffffff"/>
  </g>
  <g id="axes_1">
   <g id="patch_2">
    <path d="M 51.05 318.04 
L 565.2 318.04 
L 565.2 25.44 
L 51.05 25.44 
z
" style="fill: #ffffff"/>
   </g>
   <g id="patch_3">
    <path d="M 74.420455 318.04 
L 83.768636 318.04 
L 83.768636 39.373333 
L 74.420455 39.373333 
z
" clip-path="url(#p51de96b5e8)" style="fill: #1f77b4; opacity: 0.7"/>
   </g>
   <g id="patch_4">
    <path d="M 83.768636 318.04 
L 93.116818 318.04 
L 93.116818 181.068249 
L 83.768636 181.068249 
z
" clip-path="url(#p51de96b5e8)" style="fill: #1f77b4; opacity: 0.7"/>
   </g>
   <g id="patch_5">
    <path d="M 93.116818 318.04 
L 102.465 318.04 
L 102.465 177.919473 
L 93.116818 177.919473 
z
" clip-path="url(#p51de96b5e8)" style="fill: #1f77b4; opacity: 0.7"/>
   </g>
   <g id="patch_6">
    <path d="M 102.465 318.04 
L 111.813182 318.04 
L 111.813182 184.217024 
L 102.465 184.217024 
z
" clip-path="url(#p51de96b5e8)" style="fill: #1f77b4; opacity: 0.7"/>
   </g>
   <g id="patch_7">
    <path d="M 111.813182 318.04 
L 121.161364 318.04 
L 121.161364 192.088964 
L 111.813182 192.088964 
z
" clip-path="url(#p51de96b5e8)" style="fill: #1f77b4; opacity: 0.7"/>
   </g>
   <g id="patch_8">
    <path d="M 121.161364 318.04 
L 130.509545 318.04 
L 130.509545 294.424181 
L 121.161364 294.424181 
z
" clip-path="url(#p51de96b5e8)" style="fill: #1f77b4; opacity: 0.7"/>
   </g>
   <g id="patch_9">
    <path d="M 130.509545 318.04 
L 139.857727 318.04 
L 139.857727 281.829077 
L 130.509545 281.829077 
z
" clip-path="url(#p51de96b5e8)" style="fill: #1f77b4; opacity: 0.7"/>
   </g>
   <g id="patch_10">
    <path d="M 139.857727 318.04 
L 149.205909 318.04 
L 149.205909 284.977853 
L 139.857727 284.977853 
z
" clip-path="url(#p51de96b5e8)" style="fill: #1f77b4; opacity: 0.7"/>
   </g>
   <g id="patch_11">
    <path d="M 149.205909 318.04 
L 158.554091 318.04 
L 158.554091 281.829077 
L 149.205909 281.829077 
z
" clip-path="url(#p51de96b5e8)" style="fill: #1f77b4; opacity: 0.7"/>
   </g>
   <g id="patch_12">
    <path d="M 158.554091 318.04 
L 167.902273 318.04 
L 167.902273 303.870508 
L 158.554091 303.870508 
z
" clip-path="url(#p51de96b5e8)" style="fill: #1f77b4; opacity: 0.7"/>
   </g>
   <g id="patch_13">
    <path d="M 167.902273 318.04 
L 177.250455 318.04 
L 177.250455 299.147345 
L 167.902273 299.147345 
z
" clip-path="url(#p51de96b5e8)" style="fill: #1f77b4; opacity: 0.7"/>
   </g>
   <g id="patch_14">
    <path d="M 177.250455 318.04 
L 186.598636 318.04 
L 186.598636 303.870508 
L 177.250455 303.870508 
z
" clip-path="url(#p51de96b5e8)" style="fill: #1f77b4; opacity: 0.7"/>
   </g>
   <g id="patch_15">
    <path d="M 186.598636 318.04 
L 195.946818 318.04 
L 195.946818 314.891224 
L 186.598636 314.891224 
z
" clip-path="url(#p51de96b5e8)" style="fill: #1f77b4; opacity: 0.7"/>
   </g>
   <g id="patch_16">
    <path d="M 195.946818 318.04 
L 205.295 318.04 
L 205.295 316.465612 
L 195.946818 316.465612 
z
" clip-path="url(#p51de96b5e8)" style="fill: #1f77b4; opacity: 0.7"/>
   </g>
   <g id="patch_17">
    <path d="M 205.295 318.04 
L 214.643182 318.04 
L 214.643182 308.593672 
L 205.295 308.593672 
z
" clip-path="url(#p51de96b5e8)" style="fill: #1f77b4; opacity: 0.7"/>
   </g>
   <g id="patch_18">
    <path d="M 214.643182 318.04 
L 223.991364 318.04 
L 223.991364 314.891224 
L 214.643182 314.891224 
z
" clip-path="url(#p51de96b5e8)" style="fill: #1f77b4; opacity: 0.7"/>
   </g>
   <g id="patch_19">
    <path d="M 223.991364 318.04 
L 233.339545 318.04 
L 233.339545 313.316836 
L 223.991364 313.316836 
z
" clip-path="url(#p51de96b5e8)" style="fill: #1f77b4; opacity: 0.7"/>
   </g>
   <g id="patch_20">
    <path d="M 233.339545 318.04 
L 242.687727 318.04 
L 242.687727 314.891224 
L 233.339545 314.891224 
z
" clip-path="url(#p51de96b5e8)" style="fill: #1f77b4; opacity: 0.7"/>
   </g>
   <g id="patch_21">
    <path d="M 242.687727 318.04 
L 252.035909 318.04 
L 252.035909 318.04 
L 242.687727 318.04 
z
" clip-path="url(#p51de96b5e8)" style="fill: #1f77b4; opacity: 0.7"/>
   </g>
   <g id="patch_22">
    <path d="M 252.035909 318.04 
L 261.384091 318.04 
L 261.384091 318.04 
L 252.035909 318.04 
z
" clip-path="url(#p51de96b5e8)" style="fill: #1f77b4; opacity: 0.7"/>
   </g>
   <g id="patch_23">
    <path d="M 261.384091 318.04 
L 270.732273 318.04 
L 270.732273 316.465612 
L 261.384091 316.465612 
z
" clip-path="url(#p51de96b5e8)" style="fill: #1f77b4; opacity: 0.7"/>
   </g>
   <g id="patch_24">
    <path d="M 270.732273 318.04 
L 280.080455 318.04 
L 280.080455 316.465612 
L 270.732273 316.465612 
z
" clip-path="url(#p51de96b5e8)" style="fill: #1f77b4; opacity: 0.7"/>
   </g>
   <g id="patch_25">
    <path d="M 280.080455 318.04 
L 289.428636 318.04 
L 289.428636 318.04 
L 280.080455 318.04 
z
" clip-path="url(#p51de96b5e8)" style="fill: #1f77b4; opacity: 0.7"/>
   </g>
   <g id="patch_26">
    <path d="M 289.428636 318.04 
L 298.776818 318.04 
L 298.776818 316.465612 
L 289.428636 316.465612 
z
" clip-path="url(#p51de96b5e8)" style="fill: #1f77b4; opacity: 0.7"/>
   </g>
   <g id="patch_27">
    <path d="M 298.776818 318.04 
L 308.125 318.04 
L 308.125 318.04 
L 298.776818 318.04 
z
" clip-path="url(#p51de96b5e8)" style="fill: #1f77b4; opacity: 0.7"/>
   </g>
   <g id="patch_28">
    <path d="M 308.125 318.04 
L 317.473182 318.04 
L 317.473182 316.465612 
L 308.125 316.465612 
z
" clip-path="url(#p51de96b5e8)" style="fill: #1f77b4; opacity: 0.7"/>
   </g>
   <g id="patch_29">
    <path d="M 317.473182 318.04 
L 326.821364 318.04 
L 326.821364 318.04 
L 317.473182 318.04 
z
" clip-path="url(#p51de96b5e8)" style="fill: #1f77b4; opacity: 0.7"/>
   </g>
   <g id="patch_30">
    <path d="M 326.821364 318.04 
L 336.169545 318.04 
L 336.169545 318.04 
L 326.821364 318.04 
z
" clip-path="url(#p51de96b5e8)" style="fill: #1f77b4; opacity: 0.7"/>
   </g>
   <g id="patch_31">
    <path d="M 336.169545 318.04 
L 345.517727 318.04 
L 345.517727 318.04 
L 336.169545 318.04 
z
" clip-path="url(#p51de96b5e8)" style="fill: #1f77b4; opacity: 0.7"/>
   </g>
   <g id="patch_32">
    <path d="M 345.517727 318.04 
L 354.865909 318.04 
L 354.865909 318.04 
L 345.517727 318.04 
z
" clip-path="url(#p51de96b5e8)" style="fill: #1f77b4; opacity: 0.7"/>
   </g>
   <g id="patch_33">
    <path d="M 354.865909 318.04 
L 364.214091 318.04 
L 364.214091 318.04 
L 354.865909 318.04 
z
" clip-path="url(#p51de96b5e8)" style="fill: #1f77b4; opacity: 0.7"/>
   </g>
   <g id="patch_34">
    <path d="M 364.214091 318.04 
L 373.562273 318.04 
L 373.562273 318.04 
L 364.214091 318.04 
z
" clip-path="url(#p51de96b5e8)" style="fill: #1f77b4; opacity: 0.7"/>
   </g>
   <g id="patch_35">
    <path d="M 373.562273 318.04 
L 382.910455 318.04 
L 382.910455 318.04 
L 373.562273 318.04 
z
" clip-path="url(#p51de96b5e8)" style="fill: #1f77b4; opacity: 0.7"/>
   </g>
   <g id="patch_36">
    <path d="M 382.910455 318.04 
L 392.258636 318.04 
L 392.258636 318.04 
L 382.910455 318.04 
z
" clip-path="url(#p51de96b5e8)" style="fill: #1f77b4; opacity: 0.7"/>
   </g>
   <g id="patch_37">
    <path d="M 392.258636 318.04 
L 401.606818 318.04 
L 401.606818 318.04 
L 392.258636 318.04 
z
" clip-path="url(#p51de96b5e8)" style="fill: #1f77b4; opacity: 0.7"/>
   </g>
   <g id="patch_38">
    <path d="M 401.606818 318.04 
L 410.955 318.04 
L 410.955 318.04 
L 401.606818 318.04 
z
" clip-path="url(#p51de96b5e8)" style="fill: #1f77b4; opacity: 0.7"/>
   </g>
   <g id="patch_39">
    <path d="M 410.955 318.04 
L 420.303182 318.04 
L 420.303182 318.04 
L 410.955 318.04 
z
" clip-path="url(#p51de96b5e8)" style="fill: #1f77b4; opacity: 0.7"/>
   </g>
   <g id="patch_40">
    <path d="M 420.303182 318.04 
L 429.651364 318.04 
L 429.651364 316.465612 
L 420.303182 316.465612 
z
" clip-path="url(#p51de96b5e8)" style="fill: #1f77b4; opacity: 0.7"/>
   </g>
   <g id="patch_41">
    <path d="M 429.651364 318.04 
L 438.999545 318.04 
L 438.999545 318.04 
L 429.651364 318.04 
z
" clip-path="url(#p51de96b5e8)" style="fill: #1f77b4; opacity: 0.7"/>
   </g>
   <g id="patch_42">
    <path d="M 438.999545 318.04 
L 448.347727 318.04 
L 448.347727 318.04 
L 438.999545 318.04 
z
" clip-path="url(#p51de96b5e8)" style="fill: #1f77b4; opacity: 0.7"/>
   </g>
   <g id="patch_43">
    <path d="M 448.347727 318.04 
L 457.695909 318.04 
L 457.695909 318.04 
L 448.347727 318.04 
z
" clip-path="url(#p51de96b5e8)" style="fill: #1f77b4; opacity: 0.7"/>
   </g>
   <g id="patch_44">
    <path d="M 457.695909 318.04 
L 467.044091 318.04 
L 467.044091 318.04 
L 457.695909 318.04 
z
" clip-path="url(#p51de96b5e8)" style="fill: #1f77b4; opacity: 0.7"/>
   </g>
   <g id="patch_45">
    <path d="M 467.044091 318.04 
L 476.392273 318.04 
L 476.392273 318.04 
L 467.044091 318.04 
z
" clip-path="url(#p51de96b5e8)" style="fill: #1f77b4; opacity: 0.7"/>
   </g>
   <g id="patch_46">
    <path d="M 476.392273 318.04 
L 485.740455 318.04 
L 485.740455 318.04 
L 476.392273 318.04 
z
" clip-path="url(#p51de96b5e8)" style="fill: #1f77b4; opacity: 0.7"/>
   </g>
   <g id="patch_47">
    <path d="M 485.740455 318.04 
L 495.088636 318.04 
L 495.088636 318.04 
L 485.740455 318.04 
z
" clip-path="url(#p51de96b5e8)" style="fill: #1f77b4; opacity: 0.7"/>
   </g>
   <g id="patch_48">
    <path d="M 495.088636 318.04 
L 504.436818 318.04 
L 504.436818 318.04 
L 495.088636 318.04 
z
" clip-path="url(#p51de96b5e8)" style="fill: #1f77b4; opacity: 0.7"/>
   </g>
   <g id="patch_49">
    <path d="M 504.436818 318.04 
L 513.785 318.04 
L 513.785 318.04 
L 504.436818 318.04 
z
" clip-path="url(#p51de96b5e8)" style="fill: #1f77b4; opacity: 0.7"/>
   </g>
   <g id="patch_50">
    <path d="M 513.785 318.04 
L 523.133182 318.04 
L 523.133182 318.04 
L 513.785 318.04 
z
" clip-path="url(#p51de96b5e8)" style="fill: #1f77b4; opacity: 0.7"/>
   </g>
   <g id="patch_51">
    <path d="M 523.133182 318.04 
L 532.481364 318.04 
L 532.481364 318.04 
L 523.133182 318.04 
z
" clip-path="url(#p51de96b5e8)" style="fill: #1f77b4; opacity: 0.7"/>
   </g>
   <g id="patch_52">
    <path d="M 532.481364 318.04 
L 541.829545 318.04 
L 541.829545 316.465612 
L 532.481364 316.465612 
z
" clip-path="url(#p51de96b5e8)" style="fill: #1f77b4; opacity: 0.7"/>
   </g>
   <g id="matplotlib.axis_1">
    <g id="xtick_1">
     <g id="line2d_1">
      <defs>
       <path id="mc0c252ea03" d="M 0 0 
L 0 3.5 
" style="stroke: #000000; stroke-width: 0.8"/>
      </defs>
      <g>
       <use xlink:href="#mc0c252ea03" x="71.882468" y="318.04" style="stroke: #000000; stroke-width: 0.8"/>
      </g>
     </g>
     <g id="text_1">
      <!-- 0 -->
      <g transform="translate(68.701218 332.638438) scale(0.1 -0.1)">
       <defs>
        <path id="DejaVuSans-30" d="M 2034 4250 
Q 1547 4250 1301 3770 
Q 1056 3291 1056 2328 
Q 1056 1369 1301 889 
Q 1547 409 2034 409 
Q 2525 409 2770 889 
Q 3016 1369 3016 2328 
Q 3016 3291 2770 3770 
Q 2525 4250 2034 4250 
z
M 2034 4750 
Q 2819 4750 3233 4129 
Q 3647 3509 3647 2328 
Q 3647 1150 3233 529 
Q 2819 -91 2034 -91 
Q 1250 -91 836 529 
Q 422 1150 422 2328 
Q 422 3509 836 4129 
Q 1250 4750 2034 4750 
z
" transform="scale(0.015625)"/>
       </defs>
       <use xlink:href="#DejaVuSans-30"/>
      </g>
     </g>
    </g>
    <g id="xtick_2">
     <g id="line2d_2">
      <g>
       <use xlink:href="#mc0c252ea03" x="154.971732" y="318.04" style="stroke: #000000; stroke-width: 0.8"/>
      </g>
     </g>
     <g id="text_2">
      <!-- 100 -->
      <g transform="translate(145.427982 332.638438) scale(0.1 -0.1)">
       <defs>
        <path id="DejaVuSans-31" d="M 794 531 
L 1825 531 
L 1825 4091 
L 703 3866 
L 703 4441 
L 1819 4666 
L 2450 4666 
L 2450 531 
L 3481 531 
L 3481 0 
L 794 0 
L 794 531 
z
" transform="scale(0.015625)"/>
       </defs>
       <use xlink:href="#DejaVuSans-31"/>
       <use xlink:href="#DejaVuSans-30" transform="translate(63.623047 0)"/>
       <use xlink:href="#DejaVuSans-30" transform="translate(127.246094 0)"/>
      </g>
     </g>
    </g>
    <g id="xtick_3">
     <g id="line2d_3">
      <g>
       <use xlink:href="#mc0c252ea03" x="238.060997" y="318.04" style="stroke: #000000; stroke-width: 0.8"/>
      </g>
     </g>
     <g id="text_3">
      <!-- 200 -->
      <g transform="translate(228.517247 332.638438) scale(0.1 -0.1)">
       <defs>
        <path id="DejaVuSans-32" d="M 1228 531 
L 3431 531 
L 3431 0 
L 469 0 
L 469 531 
Q 828 903 1448 1529 
Q 2069 2156 2228 2338 
Q 2531 2678 2651 2914 
Q 2772 3150 2772 3378 
Q 2772 3750 2511 3984 
Q 2250 4219 1831 4219 
Q 1534 4219 1204 4116 
Q 875 4013 500 3803 
L 500 4441 
Q 881 4594 1212 4672 
Q 1544 4750 1819 4750 
Q 2544 4750 2975 4387 
Q 3406 4025 3406 3419 
Q 3406 3131 3298 2873 
Q 3191 2616 2906 2266 
Q 2828 2175 2409 1742 
Q 1991 1309 1228 531 
z
" transform="scale(0.015625)"/>
       </defs>
       <use xlink:href="#DejaVuSans-32"/>
       <use xlink:href="#DejaVuSans-30" transform="translate(63.623047 0)"/>
       <use xlink:href="#DejaVuSans-30" transform="translate(127.246094 0)"/>
      </g>
     </g>
    </g>
    <g id="xtick_4">
     <g id="line2d_4">
      <g>
       <use xlink:href="#mc0c252ea03" x="321.150261" y="318.04" style="stroke: #000000; stroke-width: 0.8"/>
      </g>
     </g>
     <g id="text_4">
      <!-- 300 -->
      <g transform="translate(311.606511 332.638438) scale(0.1 -0.1)">
       <defs>
        <path id="DejaVuSans-33" d="M 2597 2516 
Q 3050 2419 3304 2112 
Q 3559 1806 3559 1356 
Q 3559 666 3084 287 
Q 2609 -91 1734 -91 
Q 1441 -91 1130 -33 
Q 819 25 488 141 
L 488 750 
Q 750 597 1062 519 
Q 1375 441 1716 441 
Q 2309 441 2620 675 
Q 2931 909 2931 1356 
Q 2931 1769 2642 2001 
Q 2353 2234 1838 2234 
L 1294 2234 
L 1294 2753 
L 1863 2753 
Q 2328 2753 2575 2939 
Q 2822 3125 2822 3475 
Q 2822 3834 2567 4026 
Q 2313 4219 1838 4219 
Q 1578 4219 1281 4162 
Q 984 4106 628 3988 
L 628 4550 
Q 988 4650 1302 4700 
Q 1616 4750 1894 4750 
Q 2613 4750 3031 4423 
Q 3450 4097 3450 3541 
Q 3450 3153 3228 2886 
Q 3006 2619 2597 2516 
z
" transform="scale(0.015625)"/>
       </defs>
       <use xlink:href="#DejaVuSans-33"/>
       <use xlink:href="#DejaVuSans-30" transform="translate(63.623047 0)"/>
       <use xlink:href="#DejaVuSans-30" transform="translate(127.246094 0)"/>
      </g>
     </g>
    </g>
    <g id="xtick_5">
     <g id="line2d_5">
      <g>
       <use xlink:href="#mc0c252ea03" x="404.239525" y="318.04" style="stroke: #000000; stroke-width: 0.8"/>
      </g>
     </g>
     <g id="text_5">
      <!-- 400 -->
      <g transform="translate(394.695775 332.638438) scale(0.1 -0.1)">
       <defs>
        <path id="DejaVuSans-34" d="M 2419 4116 
L 825 1625 
L 2419 1625 
L 2419 4116 
z
M 2253 4666 
L 3047 4666 
L 3047 1625 
L 3713 1625 
L 3713 1100 
L 3047 1100 
L 3047 0 
L 2419 0 
L 2419 1100 
L 313 1100 
L 313 1709 
L 2253 4666 
z
" transform="scale(0.015625)"/>
       </defs>
       <use xlink:href="#DejaVuSans-34"/>
       <use xlink:href="#DejaVuSans-30" transform="translate(63.623047 0)"/>
       <use xlink:href="#DejaVuSans-30" transform="translate(127.246094 0)"/>
      </g>
     </g>
    </g>
    <g id="xtick_6">
     <g id="line2d_6">
      <g>
       <use xlink:href="#mc0c252ea03" x="487.32879" y="318.04" style="stroke: #000000; stroke-width: 0.8"/>
      </g>
     </g>
     <g id="text_6">
      <!-- 500 -->
      <g transform="translate(477.78504 332.638438) scale(0.1 -0.1)">
       <defs>
        <path id="DejaVuSans-35" d="M 691 4666 
L 3169 4666 
L 3169 4134 
L 1269 4134 
L 1269 2991 
Q 1406 3038 1543 3061 
Q 1681 3084 1819 3084 
Q 2600 3084 3056 2656 
Q 3513 2228 3513 1497 
Q 3513 744 3044 326 
Q 2575 -91 1722 -91 
Q 1428 -91 1123 -41 
Q 819 9 494 109 
L 494 744 
Q 775 591 1075 516 
Q 1375 441 1709 441 
Q 2250 441 2565 725 
Q 2881 1009 2881 1497 
Q 2881 1984 2565 2268 
Q 2250 2553 1709 2553 
Q 1456 2553 1204 2497 
Q 953 2441 691 2322 
L 691 4666 
z
" transform="scale(0.015625)"/>
       </defs>
       <use xlink:href="#DejaVuSans-35"/>
       <use xlink:href="#DejaVuSans-30" transform="translate(63.623047 0)"/>
       <use xlink:href="#DejaVuSans-30" transform="translate(127.246094 0)"/>
      </g>
     </g>
    </g>
    <g id="text_7">
     <!-- QUAL score -->
     <g transform="translate(279.301562 346.316563) scale(0.1 -0.1)">
      <defs>
       <path id="DejaVuSans-51" d="M 2522 4238 
Q 1834 4238 1429 3725 
Q 1025 3213 1025 2328 
Q 1025 1447 1429 934 
Q 1834 422 2522 422 
Q 3209 422 3611 934 
Q 4013 1447 4013 2328 
Q 4013 3213 3611 3725 
Q 3209 4238 2522 4238 
z
M 3406 84 
L 4238 -825 
L 3475 -825 
L 2784 -78 
Q 2681 -84 2626 -87 
Q 2572 -91 2522 -91 
Q 1538 -91 948 567 
Q 359 1225 359 2328 
Q 359 3434 948 4092 
Q 1538 4750 2522 4750 
Q 3503 4750 4090 4092 
Q 4678 3434 4678 2328 
Q 4678 1516 4351 937 
Q 4025 359 3406 84 
z
" transform="scale(0.015625)"/>
       <path id="DejaVuSans-55" d="M 556 4666 
L 1191 4666 
L 1191 1831 
Q 1191 1081 1462 751 
Q 1734 422 2344 422 
Q 2950 422 3222 751 
Q 3494 1081 3494 1831 
L 3494 4666 
L 4128 4666 
L 4128 1753 
Q 4128 841 3676 375 
Q 3225 -91 2344 -91 
Q 1459 -91 1007 375 
Q 556 841 556 1753 
L 556 4666 
z
" transform="scale(0.015625)"/>
       <path id="DejaVuSans-41" d="M 2188 4044 
L 1331 1722 
L 3047 1722 
L 2188 4044 
z
M 1831 4666 
L 2547 4666 
L 4325 0 
L 3669 0 
L 3244 1197 
L 1141 1197 
L 716 0 
L 50 0 
L 1831 4666 
z
" transform="scale(0.015625)"/>
       <path id="DejaVuSans-4c" d="M 628 4666 
L 1259 4666 
L 1259 531 
L 3531 531 
L 3531 0 
L 628 0 
L 628 4666 
z
" transform="scale(0.015625)"/>
       <path id="DejaVuSans-20" transform="scale(0.015625)"/>
       <path id="DejaVuSans-73" d="M 2834 3397 
L 2834 2853 
Q 2591 2978 2328 3040 
Q 2066 3103 1784 3103 
Q 1356 3103 1142 2972 
Q 928 2841 928 2578 
Q 928 2378 1081 2264 
Q 1234 2150 1697 2047 
L 1894 2003 
Q 2506 1872 2764 1633 
Q 3022 1394 3022 966 
Q 3022 478 2636 193 
Q 2250 -91 1575 -91 
Q 1294 -91 989 -36 
Q 684 19 347 128 
L 347 722 
Q 666 556 975 473 
Q 1284 391 1588 391 
Q 1994 391 2212 530 
Q 2431 669 2431 922 
Q 2431 1156 2273 1281 
Q 2116 1406 1581 1522 
L 1381 1569 
Q 847 1681 609 1914 
Q 372 2147 372 2553 
Q 372 3047 722 3315 
Q 1072 3584 1716 3584 
Q 2034 3584 2315 3537 
Q 2597 3491 2834 3397 
z
" transform="scale(0.015625)"/>
       <path id="DejaVuSans-63" d="M 3122 3366 
L 3122 2828 
Q 2878 2963 2633 3030 
Q 2388 3097 2138 3097 
Q 1578 3097 1268 2742 
Q 959 2388 959 1747 
Q 959 1106 1268 751 
Q 1578 397 2138 397 
Q 2388 397 2633 464 
Q 2878 531 3122 666 
L 3122 134 
Q 2881 22 2623 -34 
Q 2366 -91 2075 -91 
Q 1284 -91 818 406 
Q 353 903 353 1747 
Q 353 2603 823 3093 
Q 1294 3584 2113 3584 
Q 2378 3584 2631 3529 
Q 2884 3475 3122 3366 
z
" transform="scale(0.015625)"/>
       <path id="DejaVuSans-6f" d="M 1959 3097 
Q 1497 3097 1228 2736 
Q 959 2375 959 1747 
Q 959 1119 1226 758 
Q 1494 397 1959 397 
Q 2419 397 2687 759 
Q 2956 1122 2956 1747 
Q 2956 2369 2687 2733 
Q 2419 3097 1959 3097 
z
M 1959 3584 
Q 2709 3584 3137 3096 
Q 3566 2609 3566 1747 
Q 3566 888 3137 398 
Q 2709 -91 1959 -91 
Q 1206 -91 779 398 
Q 353 888 353 1747 
Q 353 2609 779 3096 
Q 1206 3584 1959 3584 
z
" transform="scale(0.015625)"/>
       <path id="DejaVuSans-72" d="M 2631 2963 
Q 2534 3019 2420 3045 
Q 2306 3072 2169 3072 
Q 1681 3072 1420 2755 
Q 1159 2438 1159 1844 
L 1159 0 
L 581 0 
L 581 3500 
L 1159 3500 
L 1159 2956 
Q 1341 3275 1631 3429 
Q 1922 3584 2338 3584 
Q 2397 3584 2469 3576 
Q 2541 3569 2628 3553 
L 2631 2963 
z
" transform="scale(0.015625)"/>
       <path id="DejaVuSans-65" d="M 3597 1894 
L 3597 1613 
L 953 1613 
Q 991 1019 1311 708 
Q 1631 397 2203 397 
Q 2534 397 2845 478 
Q 3156 559 3463 722 
L 3463 178 
Q 3153 47 2828 -22 
Q 2503 -91 2169 -91 
Q 1331 -91 842 396 
Q 353 884 353 1716 
Q 353 2575 817 3079 
Q 1281 3584 2069 3584 
Q 2775 3584 3186 3129 
Q 3597 2675 3597 1894 
z
M 3022 2063 
Q 3016 2534 2758 2815 
Q 2500 3097 2075 3097 
Q 1594 3097 1305 2825 
Q 1016 2553 972 2059 
L 3022 2063 
z
" transform="scale(0.015625)"/>
      </defs>
      <use xlink:href="#DejaVuSans-51"/>
      <use xlink:href="#DejaVuSans-55" transform="translate(78.710938 0)"/>
      <use xlink:href="#DejaVuSans-41" transform="translate(151.904297 0)"/>
      <use xlink:href="#DejaVuSans-4c" transform="translate(220.3125 0)"/>
      <use xlink:href="#DejaVuSans-20" transform="translate(276.025391 0)"/>
      <use xlink:href="#DejaVuSans-73" transform="translate(307.8125 0)"/>
      <use xlink:href="#DejaVuSans-63" transform="translate(359.912109 0)"/>
      <use xlink:href="#DejaVuSans-6f" transform="translate(414.892578 0)"/>
      <use xlink:href="#DejaVuSans-72" transform="translate(476.074219 0)"/>
      <use xlink:href="#DejaVuSans-65" transform="translate(514.9375 0)"/>
     </g>
    </g>
   </g>
   <g id="matplotlib.axis_2">
    <g id="ytick_1">
     <g id="line2d_7">
      <defs>
       <path id="m9fa2a6e2ee" d="M 0 0 
L -3.5 0 
" style="stroke: #000000; stroke-width: 0.8"/>
      </defs>
      <g>
       <use xlink:href="#m9fa2a6e2ee" x="51.05" y="318.04" style="stroke: #000000; stroke-width: 0.8"/>
      </g>
     </g>
     <g id="text_8">
      <!-- 0 -->
      <g transform="translate(37.6875 321.839219) scale(0.1 -0.1)">
       <use xlink:href="#DejaVuSans-30"/>
      </g>
     </g>
    </g>
    <g id="ytick_2">
     <g id="line2d_8">
      <g>
       <use xlink:href="#m9fa2a6e2ee" x="51.05" y="278.680301" style="stroke: #000000; stroke-width: 0.8"/>
      </g>
     </g>
     <g id="text_9">
      <!-- 25 -->
      <g transform="translate(31.325 282.47952) scale(0.1 -0.1)">
       <use xlink:href="#DejaVuSans-32"/>
       <use xlink:href="#DejaVuSans-35" transform="translate(63.623047 0)"/>
      </g>
     </g>
    </g>
    <g id="ytick_3">
     <g id="line2d_9">
      <g>
       <use xlink:href="#m9fa2a6e2ee" x="51.05" y="239.320603" style="stroke: #000000; stroke-width: 0.8"/>
      </g>
     </g>
     <g id="text_10">
      <!-- 50 -->
      <g transform="translate(31.325 243.119821) scale(0.1 -0.1)">
       <use xlink:href="#DejaVuSans-35"/>
       <use xlink:href="#DejaVuSans-30" transform="translate(63.623047 0)"/>
      </g>
     </g>
    </g>
    <g id="ytick_4">
     <g id="line2d_10">
      <g>
       <use xlink:href="#m9fa2a6e2ee" x="51.05" y="199.960904" style="stroke: #000000; stroke-width: 0.8"/>
      </g>
     </g>
     <g id="text_11">
      <!-- 75 -->
      <g transform="translate(31.325 203.760123) scale(0.1 -0.1)">
       <defs>
        <path id="DejaVuSans-37" d="M 525 4666 
L 3525 4666 
L 3525 4397 
L 1831 0 
L 1172 0 
L 2766 4134 
L 525 4134 
L 525 4666 
z
" transform="scale(0.015625)"/>
       </defs>
       <use xlink:href="#DejaVuSans-37"/>
       <use xlink:href="#DejaVuSans-35" transform="translate(63.623047 0)"/>
      </g>
     </g>
    </g>
    <g id="ytick_5">
     <g id="line2d_11">
      <g>
       <use xlink:href="#m9fa2a6e2ee" x="51.05" y="160.601205" style="stroke: #000000; stroke-width: 0.8"/>
      </g>
     </g>
     <g id="text_12">
      <!-- 100 -->
      <g transform="translate(24.9625 164.400424) scale(0.1 -0.1)">
       <use xlink:href="#DejaVuSans-31"/>
       <use xlink:href="#DejaVuSans-30" transform="translate(63.623047 0)"/>
       <use xlink:href="#DejaVuSans-30" transform="translate(127.246094 0)"/>
      </g>
     </g>
    </g>
    <g id="ytick_6">
     <g id="line2d_12">
      <g>
       <use xlink:href="#m9fa2a6e2ee" x="51.05" y="121.241507" style="stroke: #000000; stroke-width: 0.8"/>
      </g>
     </g>
     <g id="text_13">
      <!-- 125 -->
      <g transform="translate(24.9625 125.040725) scale(0.1 -0.1)">
       <use xlink:href="#DejaVuSans-31"/>
       <use xlink:href="#DejaVuSans-32" transform="translate(63.623047 0)"/>
       <use xlink:href="#DejaVuSans-35" transform="translate(127.246094 0)"/>
      </g>
     </g>
    </g>
    <g id="ytick_7">
     <g id="line2d_13">
      <g>
       <use xlink:href="#m9fa2a6e2ee" x="51.05" y="81.881808" style="stroke: #000000; stroke-width: 0.8"/>
      </g>
     </g>
     <g id="text_14">
      <!-- 150 -->
      <g transform="translate(24.9625 85.681027) scale(0.1 -0.1)">
       <use xlink:href="#DejaVuSans-31"/>
       <use xlink:href="#DejaVuSans-35" transform="translate(63.623047 0)"/>
       <use xlink:href="#DejaVuSans-30" transform="translate(127.246094 0)"/>
      </g>
     </g>
    </g>
    <g id="ytick_8">
     <g id="line2d_14">
      <g>
       <use xlink:href="#m9fa2a6e2ee" x="51.05" y="42.522109" style="stroke: #000000; stroke-width: 0.8"/>
      </g>
     </g>
     <g id="text_15">
      <!-- 175 -->
      <g transform="translate(24.9625 46.321328) scale(0.1 -0.1)">
       <use xlink:href="#DejaVuSans-31"/>
       <use xlink:href="#DejaVuSans-37" transform="translate(63.623047 0)"/>
       <use xlink:href="#DejaVuSans-35" transform="translate(127.246094 0)"/>
      </g>
     </g>
    </g>
    <g id="text_16">
     <!-- Frequency -->
     <g transform="translate(18.882813 197.569688) rotate(-90) scale(0.1 -0.1)">
      <defs>
       <path id="DejaVuSans-46" d="M 628 4666 
L 3309 4666 
L 3309 4134 
L 1259 4134 
L 1259 2759 
L 3109 2759 
L 3109 2228 
L 1259 2228 
L 1259 0 
L 628 0 
L 628 4666 
z
" transform="scale(0.015625)"/>
       <path id="DejaVuSans-71" d="M 947 1747 
Q 947 1113 1208 752 
Q 1469 391 1925 391 
Q 2381 391 2643 752 
Q 2906 1113 2906 1747 
Q 2906 2381 2643 2742 
Q 2381 3103 1925 3103 
Q 1469 3103 1208 2742 
Q 947 2381 947 1747 
z
M 2906 525 
Q 2725 213 2448 61 
Q 2172 -91 1784 -91 
Q 1150 -91 751 415 
Q 353 922 353 1747 
Q 353 2572 751 3078 
Q 1150 3584 1784 3584 
Q 2172 3584 2448 3432 
Q 2725 3281 2906 2969 
L 2906 3500 
L 3481 3500 
L 3481 -1331 
L 2906 -1331 
L 2906 525 
z
" transform="scale(0.015625)"/>
       <path id="DejaVuSans-75" d="M 544 1381 
L 544 3500 
L 1119 3500 
L 1119 1403 
Q 1119 906 1312 657 
Q 1506 409 1894 409 
Q 2359 409 2629 706 
Q 2900 1003 2900 1516 
L 2900 3500 
L 3475 3500 
L 3475 0 
L 2900 0 
L 2900 538 
Q 2691 219 2414 64 
Q 2138 -91 1772 -91 
Q 1169 -91 856 284 
Q 544 659 544 1381 
z
M 1991 3584 
L 1991 3584 
z
" transform="scale(0.015625)"/>
       <path id="DejaVuSans-6e" d="M 3513 2113 
L 3513 0 
L 2938 0 
L 2938 2094 
Q 2938 2591 2744 2837 
Q 2550 3084 2163 3084 
Q 1697 3084 1428 2787 
Q 1159 2491 1159 1978 
L 1159 0 
L 581 0 
L 581 3500 
L 1159 3500 
L 1159 2956 
Q 1366 3272 1645 3428 
Q 1925 3584 2291 3584 
Q 2894 3584 3203 3211 
Q 3513 2838 3513 2113 
z
" transform="scale(0.015625)"/>
       <path id="DejaVuSans-79" d="M 2059 -325 
Q 1816 -950 1584 -1140 
Q 1353 -1331 966 -1331 
L 506 -1331 
L 506 -850 
L 844 -850 
Q 1081 -850 1212 -737 
Q 1344 -625 1503 -206 
L 1606 56 
L 191 3500 
L 800 3500 
L 1894 763 
L 2988 3500 
L 3597 3500 
L 2059 -325 
z
" transform="scale(0.015625)"/>
      </defs>
      <use xlink:href="#DejaVuSans-46"/>
      <use xlink:href="#DejaVuSans-72" transform="translate(50.269531 0)"/>
      <use xlink:href="#DejaVuSans-65" transform="translate(89.132812 0)"/>
      <use xlink:href="#DejaVuSans-71" transform="translate(150.65625 0)"/>
      <use xlink:href="#DejaVuSans-75" transform="translate(214.132812 0)"/>
      <use xlink:href="#DejaVuSans-65" transform="translate(277.511719 0)"/>
      <use xlink:href="#DejaVuSans-6e" transform="translate(339.035156 0)"/>
      <use xlink:href="#DejaVuSans-63" transform="translate(402.414062 0)"/>
      <use xlink:href="#DejaVuSans-79" transform="translate(457.394531 0)"/>
     </g>
    </g>
   </g>
   <g id="patch_53">
    <path d="M 51.05 318.04 
L 51.05 25.44 
" style="fill: none; stroke: #000000; stroke-width: 0.8; stroke-linejoin: miter; stroke-linecap: square"/>
   </g>
   <g id="patch_54">
    <path d="M 565.2 318.04 
L 565.2 25.44 
" style="fill: none; stroke: #000000; stroke-width: 0.8; stroke-linejoin: miter; stroke-linecap: square"/>
   </g>
   <g id="patch_55">
    <path d="M 51.05 318.04 
L 565.2 318.04 
" style="fill: none; stroke: #000000; stroke-width: 0.8; stroke-linejoin: miter; stroke-linecap: square"/>
   </g>
   <g id="patch_56">
    <path d="M 51.05 25.44 
L 565.2 25.44 
" style="fill: none; stroke: #000000; stroke-width: 0.8; stroke-linejoin: miter; stroke-linecap: square"/>
   </g>
   <g id="text_17">
    <!-- Distribution of Variant Quality Scores -->
    <g transform="translate(197.062187 19.44) scale(0.12 -0.12)">
     <defs>
      <path id="DejaVuSans-44" d="M 1259 4147 
L 1259 519 
L 2022 519 
Q 2988 519 3436 956 
Q 3884 1394 3884 2338 
Q 3884 3275 3436 3711 
Q 2988 4147 2022 4147 
L 1259 4147 
z
M 628 4666 
L 1925 4666 
Q 3281 4666 3915 4102 
Q 4550 3538 4550 2338 
Q 4550 1131 3912 565 
Q 3275 0 1925 0 
L 628 0 
L 628 4666 
z
" transform="scale(0.015625)"/>
      <path id="DejaVuSans-69" d="M 603 3500 
L 1178 3500 
L 1178 0 
L 603 0 
L 603 3500 
z
M 603 4863 
L 1178 4863 
L 1178 4134 
L 603 4134 
L 603 4863 
z
" transform="scale(0.015625)"/>
      <path id="DejaVuSans-74" d="M 1172 4494 
L 1172 3500 
L 2356 3500 
L 2356 3053 
L 1172 3053 
L 1172 1153 
Q 1172 725 1289 603 
Q 1406 481 1766 481 
L 2356 481 
L 2356 0 
L 1766 0 
Q 1100 0 847 248 
Q 594 497 594 1153 
L 594 3053 
L 172 3053 
L 172 3500 
L 594 3500 
L 594 4494 
L 1172 4494 
z
" transform="scale(0.015625)"/>
      <path id="DejaVuSans-62" d="M 3116 1747 
Q 3116 2381 2855 2742 
Q 2594 3103 2138 3103 
Q 1681 3103 1420 2742 
Q 1159 2381 1159 1747 
Q 1159 1113 1420 752 
Q 1681 391 2138 391 
Q 2594 391 2855 752 
Q 3116 1113 3116 1747 
z
M 1159 2969 
Q 1341 3281 1617 3432 
Q 1894 3584 2278 3584 
Q 2916 3584 3314 3078 
Q 3713 2572 3713 1747 
Q 3713 922 3314 415 
Q 2916 -91 2278 -91 
Q 1894 -91 1617 61 
Q 1341 213 1159 525 
L 1159 0 
L 581 0 
L 581 4863 
L 1159 4863 
L 1159 2969 
z
" transform="scale(0.015625)"/>
      <path id="DejaVuSans-66" d="M 2375 4863 
L 2375 4384 
L 1825 4384 
Q 1516 4384 1395 4259 
Q 1275 4134 1275 3809 
L 1275 3500 
L 2222 3500 
L 2222 3053 
L 1275 3053 
L 1275 0 
L 697 0 
L 697 3053 
L 147 3053 
L 147 3500 
L 697 3500 
L 697 3744 
Q 697 4328 969 4595 
Q 1241 4863 1831 4863 
L 2375 4863 
z
" transform="scale(0.015625)"/>
      <path id="DejaVuSans-56" d="M 1831 0 
L 50 4666 
L 709 4666 
L 2188 738 
L 3669 4666 
L 4325 4666 
L 2547 0 
L 1831 0 
z
" transform="scale(0.015625)"/>
      <path id="DejaVuSans-61" d="M 2194 1759 
Q 1497 1759 1228 1600 
Q 959 1441 959 1056 
Q 959 750 1161 570 
Q 1363 391 1709 391 
Q 2188 391 2477 730 
Q 2766 1069 2766 1631 
L 2766 1759 
L 2194 1759 
z
M 3341 1997 
L 3341 0 
L 2766 0 
L 2766 531 
Q 2569 213 2275 61 
Q 1981 -91 1556 -91 
Q 1019 -91 701 211 
Q 384 513 384 1019 
Q 384 1609 779 1909 
Q 1175 2209 1959 2209 
L 2766 2209 
L 2766 2266 
Q 2766 2663 2505 2880 
Q 2244 3097 1772 3097 
Q 1472 3097 1187 3025 
Q 903 2953 641 2809 
L 641 3341 
Q 956 3463 1253 3523 
Q 1550 3584 1831 3584 
Q 2591 3584 2966 3190 
Q 3341 2797 3341 1997 
z
" transform="scale(0.015625)"/>
      <path id="DejaVuSans-6c" d="M 603 4863 
L 1178 4863 
L 1178 0 
L 603 0 
L 603 4863 
z
" transform="scale(0.015625)"/>
      <path id="DejaVuSans-53" d="M 3425 4513 
L 3425 3897 
Q 3066 4069 2747 4153 
Q 2428 4238 2131 4238 
Q 1616 4238 1336 4038 
Q 1056 3838 1056 3469 
Q 1056 3159 1242 3001 
Q 1428 2844 1947 2747 
L 2328 2669 
Q 3034 2534 3370 2195 
Q 3706 1856 3706 1288 
Q 3706 609 3251 259 
Q 2797 -91 1919 -91 
Q 1588 -91 1214 -16 
Q 841 59 441 206 
L 441 856 
Q 825 641 1194 531 
Q 1563 422 1919 422 
Q 2459 422 2753 634 
Q 3047 847 3047 1241 
Q 3047 1584 2836 1778 
Q 2625 1972 2144 2069 
L 1759 2144 
Q 1053 2284 737 2584 
Q 422 2884 422 3419 
Q 422 4038 858 4394 
Q 1294 4750 2059 4750 
Q 2388 4750 2728 4690 
Q 3069 4631 3425 4513 
z
" transform="scale(0.015625)"/>
     </defs>
     <use xlink:href="#DejaVuSans-44"/>
     <use xlink:href="#DejaVuSans-69" transform="translate(77.001953 0)"/>
     <use xlink:href="#DejaVuSans-73" transform="translate(104.785156 0)"/>
     <use xlink:href="#DejaVuSans-74" transform="translate(156.884766 0)"/>
     <use xlink:href="#DejaVuSans-72" transform="translate(196.09375 0)"/>
     <use xlink:href="#DejaVuSans-69" transform="translate(237.207031 0)"/>
     <use xlink:href="#DejaVuSans-62" transform="translate(264.990234 0)"/>
     <use xlink:href="#DejaVuSans-75" transform="translate(328.466797 0)"/>
     <use xlink:href="#DejaVuSans-74" transform="translate(391.845703 0)"/>
     <use xlink:href="#DejaVuSans-69" transform="translate(431.054688 0)"/>
     <use xlink:href="#DejaVuSans-6f" transform="translate(458.837891 0)"/>
     <use xlink:href="#DejaVuSans-6e" transform="translate(520.019531 0)"/>
     <use xlink:href="#DejaVuSans-20" transform="translate(583.398438 0)"/>
     <use xlink:href="#DejaVuSans-6f" transform="translate(615.185547 0)"/>
     <use xlink:href="#DejaVuSans-66" transform="translate(676.367188 0)"/>
     <use xlink:href="#DejaVuSans-20" transform="translate(711.572266 0)"/>
     <use xlink:href="#DejaVuSans-56" transform="translate(743.359375 0)"/>
     <use xlink:href="#DejaVuSans-61" transform="translate(804.017578 0)"/>
     <use xlink:href="#DejaVuSans-72" transform="translate(865.296875 0)"/>
     <use xlink:href="#DejaVuSans-69" transform="translate(906.410156 0)"/>
     <use xlink:href="#DejaVuSans-61" transform="translate(934.193359 0)"/>
     <use xlink:href="#DejaVuSans-6e" transform="translate(995.472656 0)"/>
     <use xlink:href="#DejaVuSans-74" transform="translate(1058.851562 0)"/>
     <use xlink:href="#DejaVuSans-20" transform="translate(1098.060547 0)"/>
     <use xlink:href="#DejaVuSans-51" transform="translate(1129.847656 0)"/>
     <use xlink:href="#DejaVuSans-75" transform="translate(1208.558594 0)"/>
     <use xlink:href="#DejaVuSans-61" transform="translate(1271.9375 0)"/>
     <use xlink:href="#DejaVuSans-6c" transform="translate(1333.216797 0)"/>
     <use xlink:href="#DejaVuSans-69" transform="translate(1361 0)"/>
     <use xlink:href="#DejaVuSans-74" transform="translate(1388.783203 0)"/>
     <use xlink:href="#DejaVuSans-79" transform="translate(1427.992188 0)"/>
     <use xlink:href="#DejaVuSans-20" transform="translate(1487.171875 0)"/>
     <use xlink:href="#DejaVuSans-53" transform="translate(1518.958984 0)"/>
     <use xlink:href="#DejaVuSans-63" transform="translate(1582.435547 0)"/>
     <use xlink:href="#DejaVuSans-6f" transform="translate(1637.416016 0)"/>
     <use xlink:href="#DejaVuSans-72" transform="translate(1698.597656 0)"/>
     <use xlink:href="#DejaVuSans-65" transform="translate(1737.460938 0)"/>
     <use xlink:href="#DejaVuSans-73" transform="translate(1798.984375 0)"/>
    </g>
   </g>
   <g id="legend_1">
    <g id="patch_57">
     <path d="M 424.696875 48.118125 
L 558.2 48.118125 
Q 560.2 48.118125 560.2 46.118125 
L 560.2 32.44 
Q 560.2 30.44 558.2 30.44 
L 424.696875 30.44 
Q 422.696875 30.44 422.696875 32.44 
L 422.696875 46.118125 
Q 422.696875 48.118125 424.696875 48.118125 
z
" style="fill: #ffffff; opacity: 0.8; stroke: #cccccc; stroke-linejoin: miter"/>
    </g>
    <g id="patch_58">
     <path d="M 426.696875 42.038438 
L 446.696875 42.038438 
L 446.696875 35.038438 
L 426.696875 35.038438 
z
" style="fill: #1f77b4; opacity: 0.7"/>
    </g>
    <g id="text_18">
     <!-- Variant QUAL scores -->
     <g transform="translate(454.696875 42.038438) scale(0.1 -0.1)">
      <use xlink:href="#DejaVuSans-56"/>
      <use xlink:href="#DejaVuSans-61" transform="translate(60.658203 0)"/>
      <use xlink:href="#DejaVuSans-72" transform="translate(121.9375 0)"/>
      <use xlink:href="#DejaVuSans-69" transform="translate(163.050781 0)"/>
      <use xlink:href="#DejaVuSans-61" transform="translate(190.833984 0)"/>
      <use xlink:href="#DejaVuSans-6e" transform="translate(252.113281 0)"/>
      <use xlink:href="#DejaVuSans-74" transform="translate(315.492188 0)"/>
      <use xlink:href="#DejaVuSans-20" transform="translate(354.701172 0)"/>
      <use xlink:href="#DejaVuSans-51" transform="translate(386.488281 0)"/>
      <use xlink:href="#DejaVuSans-55" transform="translate(465.199219 0)"/>
      <use xlink:href="#DejaVuSans-41" transform="translate(538.392578 0)"/>
      <use xlink:href="#DejaVuSans-4c" transform="translate(606.800781 0)"/>
      <use xlink:href="#DejaVuSans-20" transform="translate(662.513672 0)"/>
      <use xlink:href="#DejaVuSans-73" transform="translate(694.300781 0)"/>
      <use xlink:href="#DejaVuSans-63" transform="translate(746.400391 0)"/>
      <use xlink:href="#DejaVuSans-6f" transform="translate(801.380859 0)"/>
      <use xlink:href="#DejaVuSans-72" transform="translate(862.5625 0)"/>
      <use xlink:href="#DejaVuSans-65" transform="translate(901.425781 0)"/>
      <use xlink:href="#DejaVuSans-73" transform="translate(962.949219 0)"/>
     </g>
    </g>
   </g>
  </g>
 </g>
 <defs>
  <clipPath id="p51de96b5e8">
   <rect x="51.05" y="25.44" width="514.15" height="292.6"/>
  </clipPath>
 </defs>
</svg>
